<svg width="131" height="24" viewBox="0 0 131 24" fill="none" xmlns="http://www.w3.org/2000/svg">
<g clip-path="url(#clip0_1_7)">
<path fill-rule="evenodd" clip-rule="evenodd" d="M1.33333 18.146C1.33333 18.146 4.69873 16.0248 8 17.7231C11.6888 19.6208 14.6667 18.0693 14.6667 18.0693V6.33711C14.6667 6.33711 11.6893 7.8859 8.00103 5.98971C4.69903 4.29209 1.33333 6.42365 1.33333 6.42365V18.146Z" fill="#0D141C"/>
</g>
<path d="M41.396 18.5V5.9H44.456V18.5H41.396ZM33.584 18.5V5.9H36.644V18.5H33.584ZM34.772 13.586L34.79 10.85H43.016V13.586H34.772ZM51.8593 18.68C50.8033 18.68 49.8853 18.47 49.1053 18.05C48.3253 17.618 47.7193 17.036 47.2873 16.304C46.8553 15.56 46.6393 14.714 46.6393 13.766C46.6393 13.034 46.7593 12.362 46.9993 11.75C47.2393 11.138 47.5753 10.61 48.0073 10.166C48.4393 9.71 48.9493 9.362 49.5373 9.122C50.1373 8.87 50.7913 8.744 51.4993 8.744C52.1713 8.744 52.7833 8.864 53.3353 9.104C53.8993 9.344 54.3853 9.68 54.7933 10.112C55.2013 10.544 55.5133 11.054 55.7293 11.642C55.9453 12.23 56.0413 12.872 56.0173 13.568L55.9993 14.342H48.3853L47.9713 12.722H53.6593L53.3533 13.064V12.704C53.3293 12.404 53.2333 12.14 53.0653 11.912C52.9093 11.672 52.6993 11.486 52.4353 11.354C52.1713 11.222 51.8713 11.156 51.5353 11.156C51.0673 11.156 50.6653 11.252 50.3293 11.444C50.0053 11.624 49.7593 11.894 49.5913 12.254C49.4233 12.602 49.3393 13.034 49.3393 13.55C49.3393 14.078 49.4473 14.54 49.6633 14.936C49.8913 15.32 50.2153 15.62 50.6353 15.836C51.0673 16.052 51.5773 16.16 52.1653 16.16C52.5733 16.16 52.9333 16.1 53.2453 15.98C53.5693 15.86 53.9173 15.656 54.2893 15.368L55.6393 17.276C55.2673 17.6 54.8713 17.864 54.4513 18.068C54.0313 18.272 53.5993 18.422 53.1553 18.518C52.7233 18.626 52.2913 18.68 51.8593 18.68ZM61.3802 18.662C60.5762 18.662 59.8562 18.452 59.2202 18.032C58.5962 17.6 58.0982 17.012 57.7262 16.268C57.3542 15.512 57.1682 14.66 57.1682 13.712C57.1682 12.74 57.3542 11.882 57.7262 11.138C58.0982 10.394 58.6082 9.812 59.2562 9.392C59.9042 8.96 60.6422 8.744 61.4702 8.744C61.9262 8.744 62.3402 8.81 62.7122 8.942C63.0962 9.074 63.4322 9.26 63.7202 9.5C64.0082 9.728 64.2542 9.998 64.4582 10.31C64.6622 10.61 64.8122 10.934 64.9082 11.282L64.3142 11.21V8.942H67.1762V18.5H64.2602V16.196L64.9082 16.178C64.8122 16.514 64.6562 16.832 64.4402 17.132C64.2242 17.432 63.9602 17.696 63.6482 17.924C63.3362 18.152 62.9882 18.332 62.6042 18.464C62.2202 18.596 61.8122 18.662 61.3802 18.662ZM62.1722 16.232C62.6162 16.232 63.0002 16.13 63.3242 15.926C63.6482 15.722 63.9002 15.434 64.0802 15.062C64.2602 14.678 64.3502 14.228 64.3502 13.712C64.3502 13.196 64.2602 12.752 64.0802 12.38C63.9002 11.996 63.6482 11.702 63.3242 11.498C63.0002 11.282 62.6162 11.174 62.1722 11.174C61.7402 11.174 61.3622 11.282 61.0382 11.498C60.7262 11.702 60.4802 11.996 60.3002 12.38C60.1202 12.752 60.0302 13.196 60.0302 13.712C60.0302 14.228 60.1202 14.678 60.3002 15.062C60.4802 15.434 60.7262 15.722 61.0382 15.926C61.3622 16.13 61.7402 16.232 62.1722 16.232ZM69.7355 18.5V5.18H72.6155V18.5H69.7355ZM75.9235 18.5V6.53H78.8035V18.5H75.9235ZM74.2315 11.462V8.942H80.6575V11.462H74.2315ZM82.3034 18.5V5.18H85.1294V10.886L84.5534 11.102C84.6854 10.67 84.9194 10.28 85.2554 9.932C85.6034 9.572 86.0174 9.284 86.4974 9.068C86.9774 8.852 87.4814 8.744 88.0094 8.744C88.7294 8.744 89.3354 8.894 89.8274 9.194C90.3194 9.482 90.6914 9.92 90.9434 10.508C91.1954 11.084 91.3214 11.792 91.3214 12.632V18.5H88.4234V12.866C88.4234 12.482 88.3694 12.164 88.2614 11.912C88.1534 11.66 87.9854 11.474 87.7574 11.354C87.5414 11.222 87.2714 11.162 86.9474 11.174C86.6954 11.174 86.4614 11.216 86.2454 11.3C86.0294 11.372 85.8434 11.486 85.6874 11.642C85.5314 11.786 85.4054 11.954 85.3094 12.146C85.2254 12.338 85.1834 12.548 85.1834 12.776V18.5H83.7614C83.4254 18.5 83.1374 18.5 82.8974 18.5C82.6574 18.5 82.4594 18.5 82.3034 18.5ZM94.0352 18.5V5.9H99.4712C100.263 5.9 100.965 6.08 101.577 6.44C102.201 6.8 102.693 7.292 103.053 7.916C103.425 8.54 103.611 9.242 103.611 10.022C103.611 10.838 103.425 11.57 103.053 12.218C102.693 12.854 102.201 13.358 101.577 13.73C100.965 14.102 100.263 14.288 99.4712 14.288H97.0952V18.5H94.0352ZM97.0412 11.606H99.0392C99.3032 11.606 99.5432 11.54 99.7592 11.408C99.9752 11.276 100.149 11.096 100.281 10.868C100.413 10.64 100.479 10.376 100.479 10.076C100.479 9.764 100.413 9.5 100.281 9.284C100.149 9.068 99.9752 8.9 99.7592 8.78C99.5432 8.66 99.3032 8.6 99.0392 8.6H97.0412V11.606ZM105.665 18.5V5.18H108.545V18.5H105.665ZM114.284 18.698C113.576 18.698 112.97 18.548 112.466 18.248C111.974 17.936 111.59 17.492 111.314 16.916C111.05 16.34 110.918 15.65 110.918 14.846V8.942H113.816V14.45C113.816 14.834 113.876 15.164 113.996 15.44C114.116 15.716 114.296 15.932 114.536 16.088C114.776 16.232 115.064 16.304 115.4 16.304C115.652 16.304 115.88 16.262 116.084 16.178C116.3 16.094 116.48 15.98 116.624 15.836C116.78 15.68 116.9 15.506 116.984 15.314C117.068 15.11 117.11 14.888 117.11 14.648V8.942H120.008V18.5H117.29L117.164 16.538L117.704 16.322C117.56 16.778 117.32 17.186 116.984 17.546C116.648 17.894 116.246 18.176 115.778 18.392C115.31 18.596 114.812 18.698 114.284 18.698ZM125.797 18.68C124.861 18.68 124.033 18.53 123.313 18.23C122.605 17.93 122.041 17.528 121.621 17.024L123.367 15.512C123.739 15.884 124.159 16.16 124.627 16.34C125.095 16.508 125.539 16.592 125.959 16.592C126.127 16.592 126.277 16.574 126.409 16.538C126.541 16.502 126.649 16.454 126.733 16.394C126.829 16.322 126.901 16.244 126.949 16.16C126.997 16.064 127.021 15.956 127.021 15.836C127.021 15.596 126.913 15.41 126.697 15.278C126.589 15.218 126.409 15.146 126.157 15.062C125.905 14.978 125.581 14.882 125.185 14.774C124.621 14.63 124.129 14.462 123.709 14.27C123.301 14.066 122.965 13.832 122.701 13.568C122.461 13.316 122.275 13.04 122.143 12.74C122.011 12.428 121.945 12.08 121.945 11.696C121.945 11.252 122.047 10.85 122.251 10.49C122.467 10.13 122.749 9.818 123.097 9.554C123.457 9.29 123.865 9.092 124.321 8.96C124.789 8.816 125.269 8.744 125.761 8.744C126.289 8.744 126.793 8.804 127.273 8.924C127.753 9.044 128.197 9.212 128.605 9.428C129.025 9.644 129.397 9.902 129.721 10.202L128.209 11.894C127.993 11.69 127.747 11.51 127.471 11.354C127.207 11.186 126.931 11.054 126.643 10.958C126.355 10.862 126.091 10.814 125.851 10.814C125.671 10.814 125.509 10.832 125.365 10.868C125.233 10.892 125.119 10.94 125.023 11.012C124.927 11.072 124.855 11.15 124.807 11.246C124.759 11.33 124.735 11.432 124.735 11.552C124.735 11.672 124.765 11.786 124.825 11.894C124.897 12.002 124.993 12.092 125.113 12.164C125.233 12.236 125.425 12.32 125.689 12.416C125.953 12.5 126.313 12.608 126.769 12.74C127.333 12.896 127.819 13.07 128.227 13.262C128.635 13.454 128.959 13.682 129.199 13.946C129.391 14.15 129.535 14.39 129.631 14.666C129.727 14.93 129.775 15.218 129.775 15.53C129.775 16.142 129.601 16.688 129.253 17.168C128.917 17.636 128.449 18.008 127.849 18.284C127.249 18.548 126.565 18.68 125.797 18.68Z" fill="#0D141C"/>
<defs>
<clipPath id="clip0_1_7">
<rect width="16" height="16" fill="white" transform="translate(0 4)"/>
</clipPath>
</defs>
</svg>
